<mxfile host="app.diagrams.net" modified="2020-12-12T16:24:23.790Z" agent="5.0 (Macintosh; Intel Mac OS X 10_15_6) AppleWebKit/537.36 (KHTML, like Gecko) Chrome/86.0.4240.193 Safari/537.36" etag="6mCTe35fssmLaYs6LmqQ" version="14.0.1" type="github">
  <diagram id="lSn9QHW36Qh600Oz0gpU" name="Page-1">
    <mxGraphModel dx="946" dy="538" grid="1" gridSize="10" guides="1" tooltips="1" connect="1" arrows="1" fold="1" page="1" pageScale="1" pageWidth="827" pageHeight="1169" math="0" shadow="0">
      <root>
        <mxCell id="0" />
        <mxCell id="1" parent="0" />
        <mxCell id="kxOCpHjJG9Tw3mA2eaha-43" value="" style="shape=table;html=1;whiteSpace=wrap;startSize=0;container=1;collapsible=0;childLayout=tableLayout;sketch=0;fillColor=#dae8fc;strokeColor=#6c8ebf;" vertex="1" parent="1">
          <mxGeometry x="320" y="160" width="370" height="50" as="geometry" />
        </mxCell>
        <mxCell id="kxOCpHjJG9Tw3mA2eaha-44" value="" style="shape=partialRectangle;html=1;whiteSpace=wrap;collapsible=0;dropTarget=0;pointerEvents=0;fillColor=none;top=0;left=0;bottom=0;right=0;points=[[0,0.5],[1,0.5]];portConstraint=eastwest;" vertex="1" parent="kxOCpHjJG9Tw3mA2eaha-43">
          <mxGeometry width="370" height="50" as="geometry" />
        </mxCell>
        <mxCell id="kxOCpHjJG9Tw3mA2eaha-45" value="1" style="shape=partialRectangle;html=1;whiteSpace=wrap;connectable=0;fillColor=none;top=0;left=0;bottom=0;right=0;overflow=hidden;" vertex="1" parent="kxOCpHjJG9Tw3mA2eaha-44">
          <mxGeometry width="74" height="50" as="geometry" />
        </mxCell>
        <mxCell id="kxOCpHjJG9Tw3mA2eaha-46" value="西施" style="shape=partialRectangle;html=1;whiteSpace=wrap;connectable=0;fillColor=none;top=0;left=0;bottom=0;right=0;overflow=hidden;" vertex="1" parent="kxOCpHjJG9Tw3mA2eaha-44">
          <mxGeometry x="74" width="74" height="50" as="geometry" />
        </mxCell>
        <mxCell id="kxOCpHjJG9Tw3mA2eaha-47" value="18" style="shape=partialRectangle;html=1;whiteSpace=wrap;connectable=0;fillColor=none;top=0;left=0;bottom=0;right=0;overflow=hidden;" vertex="1" parent="kxOCpHjJG9Tw3mA2eaha-44">
          <mxGeometry x="148" width="74" height="50" as="geometry" />
        </mxCell>
        <mxCell id="kxOCpHjJG9Tw3mA2eaha-56" value="30" style="shape=partialRectangle;html=1;whiteSpace=wrap;connectable=0;fillColor=none;top=0;left=0;bottom=0;right=0;overflow=hidden;" vertex="1" parent="kxOCpHjJG9Tw3mA2eaha-44">
          <mxGeometry x="222" width="74" height="50" as="geometry" />
        </mxCell>
        <mxCell id="kxOCpHjJG9Tw3mA2eaha-59" style="shape=partialRectangle;html=1;whiteSpace=wrap;connectable=0;fillColor=none;top=0;left=0;bottom=0;right=0;overflow=hidden;" vertex="1" parent="kxOCpHjJG9Tw3mA2eaha-44">
          <mxGeometry x="296" width="74" height="50" as="geometry" />
        </mxCell>
        <mxCell id="kxOCpHjJG9Tw3mA2eaha-62" value="" style="shape=table;html=1;whiteSpace=wrap;startSize=0;container=1;collapsible=0;childLayout=tableLayout;sketch=0;fillColor=#d5e8d4;strokeColor=#82b366;" vertex="1" parent="1">
          <mxGeometry x="320" y="260" width="370" height="50" as="geometry" />
        </mxCell>
        <mxCell id="kxOCpHjJG9Tw3mA2eaha-63" value="" style="shape=partialRectangle;html=1;whiteSpace=wrap;collapsible=0;dropTarget=0;pointerEvents=0;fillColor=none;top=0;left=0;bottom=0;right=0;points=[[0,0.5],[1,0.5]];portConstraint=eastwest;" vertex="1" parent="kxOCpHjJG9Tw3mA2eaha-62">
          <mxGeometry width="370" height="50" as="geometry" />
        </mxCell>
        <mxCell id="kxOCpHjJG9Tw3mA2eaha-64" value="1" style="shape=partialRectangle;html=1;whiteSpace=wrap;connectable=0;fillColor=none;top=0;left=0;bottom=0;right=0;overflow=hidden;" vertex="1" parent="kxOCpHjJG9Tw3mA2eaha-63">
          <mxGeometry width="74" height="50" as="geometry" />
        </mxCell>
        <mxCell id="kxOCpHjJG9Tw3mA2eaha-65" value="王昭君" style="shape=partialRectangle;html=1;whiteSpace=wrap;connectable=0;fillColor=none;top=0;left=0;bottom=0;right=0;overflow=hidden;" vertex="1" parent="kxOCpHjJG9Tw3mA2eaha-63">
          <mxGeometry x="74" width="74" height="50" as="geometry" />
        </mxCell>
        <mxCell id="kxOCpHjJG9Tw3mA2eaha-66" value="18" style="shape=partialRectangle;html=1;whiteSpace=wrap;connectable=0;fillColor=none;top=0;left=0;bottom=0;right=0;overflow=hidden;" vertex="1" parent="kxOCpHjJG9Tw3mA2eaha-63">
          <mxGeometry x="148" width="74" height="50" as="geometry" />
        </mxCell>
        <mxCell id="kxOCpHjJG9Tw3mA2eaha-67" value="20" style="shape=partialRectangle;html=1;whiteSpace=wrap;connectable=0;fillColor=none;top=0;left=0;bottom=0;right=0;overflow=hidden;" vertex="1" parent="kxOCpHjJG9Tw3mA2eaha-63">
          <mxGeometry x="222" width="74" height="50" as="geometry" />
        </mxCell>
        <mxCell id="kxOCpHjJG9Tw3mA2eaha-68" style="shape=partialRectangle;html=1;whiteSpace=wrap;connectable=0;fillColor=none;top=0;left=0;bottom=0;right=0;overflow=hidden;" vertex="1" parent="kxOCpHjJG9Tw3mA2eaha-63">
          <mxGeometry x="296" width="74" height="50" as="geometry" />
        </mxCell>
        <mxCell id="kxOCpHjJG9Tw3mA2eaha-69" value="" style="shape=table;html=1;whiteSpace=wrap;startSize=0;container=1;collapsible=0;childLayout=tableLayout;sketch=0;fillColor=#fff2cc;strokeColor=#d6b656;" vertex="1" parent="1">
          <mxGeometry x="320" y="370" width="370" height="50" as="geometry" />
        </mxCell>
        <mxCell id="kxOCpHjJG9Tw3mA2eaha-70" value="" style="shape=partialRectangle;html=1;whiteSpace=wrap;collapsible=0;dropTarget=0;pointerEvents=0;fillColor=none;top=0;left=0;bottom=0;right=0;points=[[0,0.5],[1,0.5]];portConstraint=eastwest;" vertex="1" parent="kxOCpHjJG9Tw3mA2eaha-69">
          <mxGeometry width="370" height="50" as="geometry" />
        </mxCell>
        <mxCell id="kxOCpHjJG9Tw3mA2eaha-71" value="1" style="shape=partialRectangle;html=1;whiteSpace=wrap;connectable=0;fillColor=none;top=0;left=0;bottom=0;right=0;overflow=hidden;" vertex="1" parent="kxOCpHjJG9Tw3mA2eaha-70">
          <mxGeometry width="74" height="50" as="geometry" />
        </mxCell>
        <mxCell id="kxOCpHjJG9Tw3mA2eaha-72" value="貂蝉" style="shape=partialRectangle;html=1;whiteSpace=wrap;connectable=0;fillColor=none;top=0;left=0;bottom=0;right=0;overflow=hidden;" vertex="1" parent="kxOCpHjJG9Tw3mA2eaha-70">
          <mxGeometry x="74" width="74" height="50" as="geometry" />
        </mxCell>
        <mxCell id="kxOCpHjJG9Tw3mA2eaha-73" value="18" style="shape=partialRectangle;html=1;whiteSpace=wrap;connectable=0;fillColor=none;top=0;left=0;bottom=0;right=0;overflow=hidden;" vertex="1" parent="kxOCpHjJG9Tw3mA2eaha-70">
          <mxGeometry x="148" width="74" height="50" as="geometry" />
        </mxCell>
        <mxCell id="kxOCpHjJG9Tw3mA2eaha-74" value="10" style="shape=partialRectangle;html=1;whiteSpace=wrap;connectable=0;fillColor=none;top=0;left=0;bottom=0;right=0;overflow=hidden;" vertex="1" parent="kxOCpHjJG9Tw3mA2eaha-70">
          <mxGeometry x="222" width="74" height="50" as="geometry" />
        </mxCell>
        <mxCell id="kxOCpHjJG9Tw3mA2eaha-75" style="shape=partialRectangle;html=1;whiteSpace=wrap;connectable=0;fillColor=none;top=0;left=0;bottom=0;right=0;overflow=hidden;" vertex="1" parent="kxOCpHjJG9Tw3mA2eaha-70">
          <mxGeometry x="296" width="74" height="50" as="geometry" />
        </mxCell>
        <mxCell id="kxOCpHjJG9Tw3mA2eaha-82" style="edgeStyle=orthogonalEdgeStyle;rounded=0;orthogonalLoop=1;jettySize=auto;html=1;exitX=1;exitY=0.5;exitDx=0;exitDy=0;entryX=0;entryY=0.5;entryDx=0;entryDy=0;sketch=0;shadow=0;" edge="1" parent="1" source="kxOCpHjJG9Tw3mA2eaha-44" target="kxOCpHjJG9Tw3mA2eaha-63">
          <mxGeometry relative="1" as="geometry" />
        </mxCell>
        <mxCell id="kxOCpHjJG9Tw3mA2eaha-83" style="edgeStyle=orthogonalEdgeStyle;rounded=0;orthogonalLoop=1;jettySize=auto;html=1;exitX=1;exitY=0.5;exitDx=0;exitDy=0;entryX=0;entryY=0.5;entryDx=0;entryDy=0;sketch=0;shadow=0;" edge="1" parent="1" source="kxOCpHjJG9Tw3mA2eaha-63" target="kxOCpHjJG9Tw3mA2eaha-70">
          <mxGeometry relative="1" as="geometry" />
        </mxCell>
        <mxCell id="kxOCpHjJG9Tw3mA2eaha-84" value="&lt;b&gt;&lt;font style=&quot;font-size: 14px&quot;&gt;id&lt;/font&gt;&lt;/b&gt;" style="text;html=1;strokeColor=none;fillColor=none;align=center;verticalAlign=middle;whiteSpace=wrap;rounded=0;sketch=0;" vertex="1" parent="1">
          <mxGeometry x="340" y="120" width="40" height="20" as="geometry" />
        </mxCell>
        <mxCell id="kxOCpHjJG9Tw3mA2eaha-86" value="&lt;b&gt;&lt;font style=&quot;font-size: 14px&quot;&gt;name&lt;/font&gt;&lt;/b&gt;" style="text;html=1;strokeColor=none;fillColor=none;align=center;verticalAlign=middle;whiteSpace=wrap;rounded=0;sketch=0;" vertex="1" parent="1">
          <mxGeometry x="410" y="120" width="40" height="20" as="geometry" />
        </mxCell>
        <mxCell id="kxOCpHjJG9Tw3mA2eaha-87" value="&lt;b&gt;&lt;font style=&quot;font-size: 14px&quot;&gt;age&lt;/font&gt;&lt;/b&gt;" style="text;html=1;strokeColor=none;fillColor=none;align=center;verticalAlign=middle;whiteSpace=wrap;rounded=0;sketch=0;" vertex="1" parent="1">
          <mxGeometry x="485" y="120" width="40" height="20" as="geometry" />
        </mxCell>
        <mxCell id="kxOCpHjJG9Tw3mA2eaha-88" value="&lt;b&gt;&lt;font style=&quot;font-size: 14px&quot;&gt;trx_id&lt;/font&gt;&lt;/b&gt;" style="text;html=1;strokeColor=none;fillColor=none;align=center;verticalAlign=middle;whiteSpace=wrap;rounded=0;sketch=0;" vertex="1" parent="1">
          <mxGeometry x="554" y="120" width="40" height="20" as="geometry" />
        </mxCell>
        <mxCell id="kxOCpHjJG9Tw3mA2eaha-89" value="&lt;b&gt;&lt;font style=&quot;font-size: 14px&quot;&gt;roll_pointer&lt;/font&gt;&lt;/b&gt;" style="text;html=1;strokeColor=none;fillColor=none;align=center;verticalAlign=middle;whiteSpace=wrap;rounded=0;sketch=0;" vertex="1" parent="1">
          <mxGeometry x="630" y="120" width="40" height="20" as="geometry" />
        </mxCell>
        <mxCell id="kxOCpHjJG9Tw3mA2eaha-90" value="" style="shape=curlyBracket;whiteSpace=wrap;html=1;rounded=1;sketch=0;" vertex="1" parent="1">
          <mxGeometry x="260" y="250" width="20" height="120" as="geometry" />
        </mxCell>
        <mxCell id="kxOCpHjJG9Tw3mA2eaha-91" value="&lt;b&gt;&lt;font style=&quot;font-size: 14px&quot;&gt;数据库中的最新记录&lt;/font&gt;&lt;/b&gt;" style="text;html=1;strokeColor=none;fillColor=none;align=center;verticalAlign=middle;whiteSpace=wrap;rounded=0;sketch=0;" vertex="1" parent="1">
          <mxGeometry x="140" y="175" width="140" height="15" as="geometry" />
        </mxCell>
        <mxCell id="kxOCpHjJG9Tw3mA2eaha-92" value="&lt;b&gt;&lt;font style=&quot;font-size: 14px&quot;&gt;undo日志&lt;/font&gt;&lt;/b&gt;" style="text;html=1;strokeColor=none;fillColor=none;align=center;verticalAlign=middle;whiteSpace=wrap;rounded=0;sketch=0;" vertex="1" parent="1">
          <mxGeometry x="140" y="302.5" width="110" height="15" as="geometry" />
        </mxCell>
        <mxCell id="kxOCpHjJG9Tw3mA2eaha-93" value="" style="shape=curlyBracket;whiteSpace=wrap;html=1;rounded=1;sketch=0;direction=west;" vertex="1" parent="1">
          <mxGeometry x="740" y="182.5" width="20" height="217.5" as="geometry" />
        </mxCell>
        <mxCell id="kxOCpHjJG9Tw3mA2eaha-94" value="&lt;b&gt;&lt;font style=&quot;font-size: 14px&quot;&gt;串成了一个版本链&lt;/font&gt;&lt;/b&gt;" style="text;html=1;strokeColor=none;fillColor=none;align=center;verticalAlign=middle;whiteSpace=wrap;rounded=0;sketch=0;" vertex="1" parent="1">
          <mxGeometry x="770" y="283.75" width="140" height="15" as="geometry" />
        </mxCell>
      </root>
    </mxGraphModel>
  </diagram>
</mxfile>
